<?xml version="1.0" standalone="no"?>
<!DOCTYPE svg PUBLIC "-//W3C//DTD SVG 20010904//EN"
 "http://www.w3.org/TR/2001/REC-SVG-20010904/DTD/svg10.dtd">
<svg version="1.0" xmlns="http://www.w3.org/2000/svg"
 width="421.000000pt" height="421.000000pt" viewBox="0 0 421.000000 421.000000"
 preserveAspectRatio="xMidYMid meet">
<metadata>
Created by potrace 1.11, written by Peter Selinger 2001-2013
</metadata>
<g transform="translate(0.000000,421.000000) scale(0.100000,-0.100000)"
fill="#000000" stroke="none">
<path d="M2024 3729 c-3 -5 -9 -7 -13 -4 -13 7 -150 -34 -221 -66 -135 -63
-228 -145 -252 -221 -11 -39 -25 -46 -58 -28 -66 35 -156 13 -226 -56 -44 -45
-107 -121 -113 -138 -2 -6 -7 -13 -11 -16 -22 -15 -103 -220 -116 -294 -3 -16
-7 -32 -9 -36 -2 -4 -7 -22 -10 -41 -3 -19 -8 -41 -10 -49 -2 -8 -7 -28 -10
-45 -12 -72 -31 -145 -47 -190 -17 -45 -71 -159 -78 -165 -4 -3 -14 -18 -22
-35 -9 -16 -33 -61 -53 -100 -56 -106 -77 -179 -77 -260 0 -121 50 -279 150
-475 46 -91 88 -166 93 -168 5 -2 9 -8 9 -14 0 -6 20 -40 44 -77 43 -64 99
-218 92 -252 -4 -22 -40 -93 -51 -101 -6 -5 -6 -8 0 -8 5 0 4 -5 -3 -12 -7 -7
-12 -18 -12 -25 0 -8 -12 -25 -27 -38 -16 -13 -25 -27 -21 -31 8 -7 146 -7
158 1 13 8 66 17 130 21 72 5 131 19 173 40 15 8 27 10 27 5 0 -14 78 -49 127
-58 94 -17 211 7 233 47 18 33 46 20 58 -26 20 -74 96 -107 193 -84 31 8 57
22 72 39 33 40 72 45 93 12 19 -29 82 -90 95 -92 14 -2 23 -5 44 -15 11 -5 54
-9 95 -9 57 0 83 5 110 20 l35 20 24 -23 c50 -46 225 -72 301 -44 14 5 40 5
61 1 21 -5 93 -10 161 -11 95 -1 135 2 176 16 28 10 52 21 52 25 0 4 -11 18
-25 31 -46 43 -73 203 -47 270 5 14 10 30 11 35 1 6 9 33 18 60 10 28 18 52
18 55 2 7 15 38 35 85 9 22 20 52 23 67 4 15 13 33 20 40 27 28 136 213 137
233 0 3 2 10 4 17 2 7 8 30 14 51 13 46 14 226 2 264 -38 120 -67 197 -105
276 -24 51 -52 124 -63 164 l-19 72 52 54 c28 29 59 68 68 87 28 56 18 80 -17
41 -31 -34 -126 -46 -152 -19 -10 10 -75 231 -99 333 -1 6 -4 17 -7 25 -4 8
-18 49 -33 90 -66 187 -189 364 -334 480 -24 19 -49 41 -56 48 -8 6 -18 12
-23 12 -5 0 -17 9 -27 20 -10 11 -21 17 -25 15 -5 -3 -10 -1 -12 3 -2 7 -128
73 -148 78 -3 0 -12 4 -20 7 -23 10 -111 38 -129 42 -9 2 -27 6 -41 9 -14 3
-38 9 -55 12 -49 11 -324 13 -331 3z"/>
</g>
</svg>
